<svg width="96" height="96" viewBox="0 0 96 96" fill="none" xmlns="http://www.w3.org/2000/svg">
  <defs>
    <linearGradient id="panel" x1="14" y1="10" x2="82" y2="88" gradientUnits="userSpaceOnUse">
      <stop stop-color="#0F2329"/>
      <stop offset="0.55" stop-color="#081317"/>
      <stop offset="1" stop-color="#041014"/>
    </linearGradient>
    <linearGradient id="edge" x1="18" y1="14" x2="78" y2="82" gradientUnits="userSpaceOnUse">
      <stop stop-color="#8EF6FF"/>
      <stop offset="0.45" stop-color="#D8FFB4"/>
      <stop offset="1" stop-color="#59F5C7"/>
    </linearGradient>
    <linearGradient id="signal" x1="30" y1="30" x2="64" y2="62" gradientUnits="userSpaceOnUse">
      <stop stop-color="#D7FFF2"/>
      <stop offset="0.4" stop-color="#B5FF89"/>
      <stop offset="1" stop-color="#7DEEFF"/>
    </linearGradient>
    <radialGradient id="glow" cx="0" cy="0" r="1" gradientUnits="userSpaceOnUse" gradientTransform="translate(48 48) rotate(90) scale(38)">
      <stop stop-color="#78F4FF" stop-opacity="0.18"/>
      <stop offset="0.7" stop-color="#99FFB7" stop-opacity="0.06"/>
      <stop offset="1" stop-color="#99FFB7" stop-opacity="0"/>
    </radialGradient>
    <pattern id="grid" width="12" height="12" patternUnits="userSpaceOnUse">
      <path d="M12 0H0V12" stroke="#E7FFF2" stroke-opacity="0.08"/>
    </pattern>
    <filter id="soft-glow" x="26" y="20" width="42" height="48" color-interpolation-filters="sRGB">
      <feGaussianBlur stdDeviation="2.2"/>
    </filter>
  </defs>

  <rect width="96" height="96" rx="30" fill="#041014"/>
  <circle cx="48" cy="48" r="40" fill="url(#glow)"/>
  <rect x="10" y="10" width="76" height="76" rx="26" fill="url(#panel)" stroke="url(#edge)" stroke-width="1.5"/>
  <rect x="14" y="14" width="68" height="68" rx="22" fill="url(#grid)"/>

  <path d="M48 16V24" stroke="url(#edge)" stroke-width="3" stroke-linecap="round"/>
  <path d="M72 48H80" stroke="url(#edge)" stroke-width="3" stroke-linecap="round"/>
  <path d="M48 72V80" stroke="url(#edge)" stroke-width="3" stroke-linecap="round"/>
  <path d="M16 48H24" stroke="url(#edge)" stroke-width="3" stroke-linecap="round"/>

  <circle cx="48" cy="14" r="3.5" fill="#D8FFF5"/>
  <circle cx="82" cy="48" r="3.5" fill="#A7F4FF"/>
  <circle cx="48" cy="82" r="3.5" fill="#BEFF93"/>
  <circle cx="14" cy="48" r="3.5" fill="#D8FFF5"/>

  <path d="M48 24L68 36V60L48 72L28 60V36L48 24Z" fill="#07181D" stroke="url(#edge)" stroke-width="2"/>
  <path d="M34 30H62" stroke="#E5FFF1" stroke-opacity="0.18" stroke-width="2" stroke-linecap="round"/>
  <path d="M36 64H60" stroke="#81F2FF" stroke-opacity="0.9" stroke-width="3.2" stroke-linecap="round"/>

  <path d="M34 54L42 36L48 46L56 30L62 44" stroke="#A3FFF0" stroke-opacity="0.4" stroke-width="8" stroke-linecap="round" stroke-linejoin="round" filter="url(#soft-glow)"/>
  <path d="M34 54L42 36L48 46L56 30L62 44" stroke="url(#signal)" stroke-width="4.8" stroke-linecap="round" stroke-linejoin="round"/>

  <circle cx="42" cy="36" r="2.6" fill="#D8FFF5"/>
  <circle cx="56" cy="30" r="2.6" fill="#A7F4FF"/>
</svg>
